<?xml version="1.0" encoding="UTF-8"?>
<!DOCTYPE svg PUBLIC "-//W3C//DTD SVG 1.1//EN" "http://www.w3.org/Graphics/SVG/1.1/DTD/svg11.dtd">
<!-- Creator: CorelDRAW -->
<svg xmlns="http://www.w3.org/2000/svg" xml:space="preserve" width="123.762mm" height="93.2264mm" version="1.1" style="shape-rendering:geometricPrecision; text-rendering:geometricPrecision; image-rendering:optimizeQuality; fill-rule:evenodd; clip-rule:evenodd"
viewBox="0 0 33.73 25.41"
 xmlns:xlink="http://www.w3.org/1999/xlink"
 xmlns:xodm="http://www.corel.com/coreldraw/odm/2003">
 <defs>
  <style type="text/css">
   <![CDATA[
    .str0 {stroke:#FFB631;stroke-width:1.64;stroke-linecap:round;stroke-linejoin:round;stroke-miterlimit:22.9256}
    .fil0 {fill:none}
   ]]>
  </style>
 </defs>
 <g id="Слой_x0020_1">
  <metadata id="CorelCorpID_0Corel-Layer"/>
  <path class="fil0 str0" d="M21.79 0.83c-2.17,4.59 -4.34,9.19 -5.97,13.15 -1.62,3.96 -2.7,7.28 -3.78,10.61m20.86 -23.74c-4.79,5.12 -7.21,7.66 -12.39,11.7 -1.37,1.07 -2.1,1.85 -2.33,2.73 -0.24,0.89 0.02,1.88 0.77,3.45 0.75,1.57 1.99,3.72 3.23,5.86m-12.34 -23.77c0.38,1.41 0.76,2.81 1.29,4.82 0.53,2.01 1.2,4.64 1.48,6.35 0.28,1.71 0.16,2.52 -0.04,3.08 -0.2,0.56 -0.48,0.89 -0.93,1.36 -0.45,0.47 -1.09,1.09 -2.09,1.92 -1,0.83 -2.37,1.87 -3.89,2.95 -1.52,1.07 -3.19,2.18 -4.86,3.29"/>
 </g>
</svg>
